<?xml version="1.0" encoding="UTF-8" ?>
<!DOCTYPE svg PUBLIC "-//W3C//DTD SVG 1.1//EN" "http://www.w3.org/Graphics/SVG/1.1/DTD/svg11.dtd">
<svg width="139pt" height="104pt" viewBox="0 0 139 104" version="1.1" xmlns="http://www.w3.org/2000/svg">
<g id="#172b36ff">
</g>
<g id="#013458ff">
<path fill="#013458" opacity="1.00" d=" M 46.95 11.88 C 49.71 10.32 52.98 10.57 56.02 10.49 C 64.07 10.59 72.11 10.25 80.15 10.59 C 74.28 12.86 71.14 18.59 67.67 23.44 C 65.35 23.70 63.03 23.98 60.72 24.26 C 73.93 25.51 87.23 24.86 100.48 25.40 L 101.15 25.43 C 93.78 26.59 86.29 24.99 78.89 26.12 C 71.77 26.41 64.63 26.47 57.50 26.24 C 55.03 26.15 52.54 25.73 50.07 26.10 C 47.24 26.99 45.28 29.60 44.09 32.19 C 42.44 36.26 44.09 40.59 45.59 44.42 L 45.35 44.95 C 44.60 46.45 44.00 48.11 42.77 49.31 C 41.05 50.34 39.06 50.88 37.40 52.03 C 36.83 53.21 36.45 54.46 36.02 55.69 C 32.37 52.69 29.48 48.61 29.08 43.78 C 27.73 36.55 29.66 29.23 32.82 22.74 C 35.80 17.25 41.81 14.84 46.95 11.88 Z" />
</g>
<g id="#014b65ff">
<path fill="#014b65" opacity="1.00" d=" M 80.15 10.59 C 86.89 10.31 93.64 10.53 100.39 10.51 C 100.86 15.46 100.81 20.43 100.48 25.40 C 87.23 24.86 73.93 25.51 60.72 24.26 C 63.03 23.98 65.35 23.70 67.67 23.44 C 71.14 18.59 74.28 12.86 80.15 10.59 Z" />
</g>
<g id="#450b41ff">
<path fill="#450b41" opacity="1.00" d=" M 57.50 26.24 C 64.63 26.47 71.77 26.41 78.89 26.12 C 79.12 26.63 79.58 27.65 79.82 28.16 C 76.52 31.05 72.97 33.70 70.10 37.04 C 68.24 39.25 66.14 41.26 63.85 43.02 C 65.84 40.17 67.82 37.30 69.96 34.56 C 63.27 36.15 56.36 36.42 49.56 35.39 C 52.64 32.74 55.42 29.74 57.50 26.24 Z" />
</g>
<g id="#5f0c46ff">
<path fill="#5f0c46" opacity="1.00" d=" M 49.56 35.39 C 56.36 36.42 63.27 36.15 69.96 34.56 C 67.82 37.30 65.84 40.17 63.85 43.02 C 61.11 47.75 54.77 46.52 50.32 45.64 C 47.70 45.28 46.29 42.96 44.96 40.95 C 46.48 39.08 48.01 37.23 49.56 35.39 Z" />
</g>
<g id="#8b104eff">
<path fill="#8b104e" opacity="1.00" d=" M 28.20 69.04 C 28.33 60.62 27.89 52.14 29.08 43.78 C 29.48 48.61 32.37 52.69 36.02 55.69 C 38.75 57.64 41.63 59.39 44.53 61.09 C 39.42 61.28 34.26 60.55 29.21 61.64 C 29.05 64.92 28.83 68.21 28.80 71.50 C 28.88 75.47 28.90 79.45 28.51 83.41 C 27.27 78.69 28.31 73.83 28.20 69.04 Z" />
</g>
<g id="#015068ff">
<path fill="#015068" opacity="1.00" d=" M 42.77 49.31 C 44.00 48.11 44.60 46.45 45.35 44.95 C 51.62 48.75 59.07 47.20 66.00 47.35 C 73.98 47.36 82.77 46.33 89.54 51.54 C 85.54 51.86 81.38 52.37 78.25 55.14 C 78.89 55.88 79.53 56.61 80.16 57.35 C 77.78 58.20 75.55 59.53 74.89 62.14 C 70.67 62.43 66.43 62.36 62.21 62.49 C 56.30 62.60 50.20 63.14 44.53 61.09 C 41.63 59.39 38.75 57.64 36.02 55.69 C 36.45 54.46 36.83 53.21 37.40 52.03 C 39.06 50.88 41.05 50.34 42.77 49.31 Z" />
</g>
<g id="#016674ff">
<path fill="#016674" opacity="1.00" d=" M 78.25 55.14 C 81.38 52.37 85.54 51.86 89.54 51.54 C 91.69 53.48 94.38 55.03 95.79 57.64 C 95.68 58.97 95.58 60.31 95.46 61.64 C 93.43 62.40 91.62 63.61 89.61 64.41 C 89.82 68.04 89.46 71.67 88.81 75.24 C 88.39 73.49 87.99 71.73 87.61 69.98 C 87.18 72.34 86.82 74.71 86.34 77.07 C 86.56 72.86 86.34 68.09 83.09 64.98 C 80.98 62.72 77.79 62.38 74.89 62.14 C 75.55 59.53 77.78 58.20 80.16 57.35 C 79.53 56.61 78.89 55.88 78.25 55.14 Z" />
</g>
<g id="#01747eff">
<path fill="#01747e" opacity="1.00" d=" M 95.46 61.64 C 95.58 60.31 95.68 58.97 95.79 57.64 C 101.90 65.99 102.44 78.08 96.82 86.80 C 92.22 93.60 84.44 98.72 76.03 98.54 C 60.23 98.50 44.44 98.30 28.64 98.39 C 28.51 93.81 28.49 89.23 28.60 84.66 C 33.49 84.63 38.39 84.57 43.28 84.40 C 38.51 84.98 33.69 85.08 28.89 85.01 C 28.49 89.38 28.75 93.78 29.48 98.10 C 40.77 98.01 52.08 97.58 63.32 96.36 C 69.03 96.28 72.67 91.52 76.66 88.16 C 72.07 84.41 65.89 85.68 60.49 84.40 C 65.97 84.19 71.50 84.80 76.93 83.89 C 80.77 82.92 84.26 80.45 86.34 77.07 C 86.82 74.71 87.18 72.34 87.61 69.98 C 87.99 71.73 88.39 73.49 88.81 75.24 C 89.46 71.67 89.82 68.04 89.61 64.41 C 91.62 63.61 93.43 62.40 95.46 61.64 Z" />
</g>
<g id="#a41050ff">
<path fill="#a41050" opacity="1.00" d=" M 29.21 61.64 C 34.26 60.55 39.42 61.28 44.53 61.09 C 50.20 63.14 56.30 62.60 62.21 62.49 C 64.12 64.53 66.04 66.55 67.93 68.62 C 62.79 69.82 57.47 69.42 52.41 68.05 C 53.27 71.51 54.18 75.03 56.03 78.13 C 51.42 73.89 47.24 69.21 42.66 64.94 C 42.57 68.05 42.51 71.16 42.34 74.27 C 41.88 73.18 41.42 72.10 41.00 71.00 C 39.88 71.16 38.77 71.32 37.66 71.48 C 37.60 70.11 37.55 68.73 37.48 67.35 C 34.41 68.35 31.59 69.91 28.80 71.50 C 28.83 68.21 29.05 64.92 29.21 61.64 Z" />
</g>
<g id="#c21155ff">
<path fill="#c21155" opacity="1.00" d=" M 28.80 71.50 C 31.59 69.91 34.41 68.35 37.48 67.35 C 37.55 68.73 37.60 70.11 37.66 71.48 C 38.77 71.32 39.88 71.16 41.00 71.00 C 41.42 72.10 41.88 73.18 42.34 74.27 C 42.81 77.28 42.49 80.35 42.46 83.39 C 37.81 83.34 33.16 83.27 28.51 83.41 C 28.90 79.45 28.88 75.47 28.80 71.50 Z" />
</g>
<g id="#c11154ff">
<path fill="#c11154" opacity="1.00" d=" M 52.41 68.05 C 57.47 69.42 62.79 69.82 67.93 68.62 C 71.97 73.04 77.14 76.50 80.33 81.62 C 74.33 83.78 67.93 83.32 61.67 83.40 C 59.76 81.69 57.68 80.11 56.03 78.13 C 54.18 75.03 53.27 71.51 52.41 68.05 Z" />
</g>
<g id="#005f71ff">
<path fill="#005f71" opacity="1.00" d=" M 43.28 84.40 C 48.98 83.66 54.82 83.17 60.49 84.40 C 65.89 85.68 72.07 84.41 76.66 88.16 C 72.67 91.52 69.03 96.28 63.32 96.36 C 52.08 97.58 40.77 98.01 29.48 98.10 C 28.75 93.78 28.49 89.38 28.89 85.01 C 33.69 85.08 38.51 84.98 43.28 84.40 Z" />
</g>
</svg>
